<?xml version="1.0" encoding="utf-8"?>
<!-- Svg Vector Icons : http://www.onlinewebfonts.com/icon -->
<!DOCTYPE svg PUBLIC "-//W3C//DTD SVG 1.1//EN" "http://www.w3.org/Graphics/SVG/1.1/DTD/svg11.dtd">
<svg version="1.1" xmlns="http://www.w3.org/2000/svg" xmlns:xlink="http://www.w3.org/1999/xlink" x="0px" y="0px" viewBox="0 0 1000 1000" enable-background="new 0 0 1000 1000" xml:space="preserve">
<metadata> Svg Vector Icons : http://www.onlinewebfonts.com/icon </metadata>
<g><path d="M846.5,153.5C753.9,61,630.9,10,500,10S246.1,61,153.5,153.5C61,246.1,10,369.1,10,500c0,130.9,51,253.9,143.5,346.5S369.1,990,500,990c130.9,0,253.9-51,346.5-143.5S990,630.9,990,500C990,369.1,939,246.1,846.5,153.5z M500,953C250.2,953,47,749.8,47,500C47,250.2,250.2,47,500,47s453,203.2,453,453C953,749.8,749.8,953,500,953z"/><path d="M641,692.2c-18-13.5-39.4-20.7-62-20.7c-31.3,0-60.7,14.5-79.9,38.1c-5.3-6.5-11.3-12.4-18-17.4c-18-13.5-39.4-20.7-62-20.7c-42.4,0-81.1,26.6-96.3,66.2c-3.7,9.5,1.1,20.2,10.6,23.9c9.5,3.7,20.2-1.1,23.9-10.6c9.7-25.4,34.5-42.4,61.7-42.4c28.9,0,54.9,19.3,63.2,46.9c2.4,8,9.8,13.1,17.7,13.1c1.8,0,3.6-0.3,5.4-0.8c8.6-2.6,13.9-10.9,13-19.5c10.4-23.8,34.4-39.7,60.6-39.7c28.9,0,54.9,19.3,63.2,46.9c2.4,8,9.8,13.1,17.7,13.1c1.8,0,3.6-0.3,5.4-0.8c9.8-3,15.3-13.3,12.3-23.1C671.4,723.9,658.3,705.3,641,692.2z"/><path d="M250.2,521.8L168.9,470c-8.6-5.5-20.1-2.9-25.6,5.7c-5.5,8.6-2.9,20.1,5.7,25.6l56.8,36.2l-57.3,36.5c-8.6,5.5-11.2,16.9-5.7,25.5c3.5,5.5,9.5,8.6,15.6,8.6c3.4,0,6.8-0.9,9.9-2.9l81.8-52.1c5.3-3.4,8.6-9.3,8.6-15.6C258.8,531.1,255.6,525.2,250.2,521.8z"/><path d="M832.7,573.9l-56.8-36.2l57.3-36.5c8.6-5.5,11.2-16.9,5.7-25.6c-5.5-8.6-16.9-11.2-25.6-5.7l-81.8,52.1c-5.3,3.4-8.6,9.3-8.6,15.6c0,6.3,3.2,12.2,8.6,15.6l81.3,51.8c3.1,2,6.5,2.9,9.9,2.9c6.1,0,12.1-3,15.6-8.6C843.9,590.8,841.3,579.4,832.7,573.9z"/></g>
</svg>